<svg id="Capa_1" data-name="Capa 1" xmlns="http://www.w3.org/2000/svg" viewBox="0 0 112.3 112.3"><defs><style>.cls-1{fill:#898584;}</style></defs><path class="cls-1" d="M5.9,99.9a9,9,0,0,0,9,9H36.7v7.3H29.4v3.6H94.6v-3.6H87.4v-7.3h21.7a9,9,0,0,0,9.1-9V94.4H5.9Zm77.9,16.3H40.3v-7.3H83.8ZM9.5,98.1h105v1.8a5.4,5.4,0,0,1-5.4,5.4H14.9a5.4,5.4,0,0,1-5.4-5.4Z" transform="translate(-5.9 -7.5)"/><path class="cls-1" d="M9.5,34.7a5.5,5.5,0,0,1,5.4-5.5h5.5V25.6H14.9a9,9,0,0,0-9,9.1V90.8H9.5Z" transform="translate(-5.9 -7.5)"/><path class="cls-1" d="M109.1,25.6h-5.4v3.6h5.4a5.5,5.5,0,0,1,5.4,5.5V90.8h3.7V34.7a9.1,9.1,0,0,0-9.1-9.1" transform="translate(-5.9 -7.5)"/><path class="cls-1" d="M100,7.5H24V83.6h76ZM96.4,80H27.6V11.1H96.4Z" transform="translate(-5.9 -7.5)"/><rect class="cls-1" x="90.5" y="79.7" width="3.6" height="3.62"/><rect class="cls-1" x="83.3" y="79.7" width="3.6" height="3.62"/><rect class="cls-1" x="76.1" y="79.7" width="3.6" height="3.62"/><path class="cls-1" d="M40.3,36.5h0a22.6,22.6,0,0,0-1.8,9,23.1,23.1,0,0,0,1.8,9.1h0a23.6,23.6,0,1,0,0-18.1ZM62,25.6A20,20,0,1,1,49.6,61.1a18.1,18.1,0,0,0,0-31.1A19.9,19.9,0,0,1,62,25.6M46.9,32.7a14.4,14.4,0,0,1,0,25.7,18.3,18.3,0,0,1-3-4.6,9,9,0,0,0,5.4-8.3,8.9,8.9,0,0,0-5.4-8.2,18.3,18.3,0,0,1,3-4.6m-4.2,8a5.4,5.4,0,0,1,0,9.7,19.9,19.9,0,0,1-.6-4.9,19.7,19.7,0,0,1,.6-4.8" transform="translate(-5.9 -7.5)"/><rect class="cls-1" x="62" y="55.7" width="3.6" height="5.12" transform="translate(-28.4 54.7) rotate(-45)"/><rect class="cls-1" x="61.3" y="31.1" width="5.1" height="3.62" transform="translate(-10.4 47.2) rotate(-45)"/><polygon class="cls-1" points="56.1 36.2 56.1 39.8 72.4 39.8 72.4 36.2 65.9 36.2 70.1 32.1 67.5 29.5 60.8 36.2 56.1 36.2"/><rect class="cls-1" x="25.4" y="7.2" width="12.7" height="3.62"/><rect class="cls-1" x="41.7" y="7.2" width="3.6" height="3.62"/><rect class="cls-1" x="25.4" y="14.5" width="12.7" height="3.62"/><rect class="cls-1" x="74.2" y="7.2" width="12.7" height="3.62"/><rect class="cls-1" x="74.2" y="14.5" width="12.7" height="3.62"/><rect class="cls-1" x="25.4" y="65.2" width="3.6" height="3.62"/><rect class="cls-1" x="32.6" y="65.2" width="3.6" height="3.62"/><rect class="cls-1" x="39.8" y="65.2" width="3.6" height="3.62"/></svg>