<svg id="Capa_1" data-name="Capa 1" xmlns="http://www.w3.org/2000/svg" viewBox="0 0 92.4 92.4"><defs><style>.cls-1{fill:#312c83;}.cls-2{fill:#fff;}</style></defs><path class="cls-1" d="M109.8,66.3A46.2,46.2,0,1,1,63.6,20.1a46.2,46.2,0,0,1,46.2,46.2" transform="translate(-17.4 -20.1)"/><path class="cls-2" d="M77.3,48.4A13.7,13.7,0,1,1,63.6,34.7,13.7,13.7,0,0,1,77.3,48.4" transform="translate(-17.4 -20.1)"/><path class="cls-2" d="M63.6,67.8c-11.5,0-20.8,8-20.8,17.9v9.5a61.9,61.9,0,0,0,41.6,0V85.7c0-9.9-9.3-17.9-20.8-17.9" transform="translate(-17.4 -20.1)"/></svg>