<svg id="Capa_1" data-name="Capa 1" xmlns="http://www.w3.org/2000/svg" viewBox="0 0 108.5 108.5"><defs><style>.cls-1{fill:#898584;}</style></defs><path class="cls-1" d="M49.1,73.7a38.4,38.4,0,0,1,.3-5,22.3,22.3,0,0,1,1.3-4.6,16.2,16.2,0,0,1,2.8-4.2,16.6,16.6,0,0,1,4.8-3.5l3.9-2.1q2.4-1.3,4.8-3a24.7,24.7,0,0,0,4-3.9,7.8,7.8,0,0,0,1.7-5A6.9,6.9,0,0,0,70,36.6a10,10,0,0,0-6.3-2.1,8.7,8.7,0,0,0-4,.8,17.7,17.7,0,0,0-3.2,2.1A14.8,14.8,0,0,0,54.1,40l-1.8,2.6L40.6,34.5a21.9,21.9,0,0,1,9.3-10.8,27.4,27.4,0,0,1,14.5-3.9,29.1,29.1,0,0,1,8.7,1.3A22.4,22.4,0,0,1,80.8,25a21,21,0,0,1,5.6,7.1,23.5,23.5,0,0,1,2.1,10.4,20.5,20.5,0,0,1-2.7,10.9A23.1,23.1,0,0,1,77.9,61a40.9,40.9,0,0,1-4.8,2.9,48.3,48.3,0,0,0-4.5,2.6,14,14,0,0,0-3.3,3.1,6.9,6.9,0,0,0-1.2,4.1Zm.3,10.7H64.3v17.1H49.4Z" transform="translate(-10.1 -8.1)"/><path class="cls-1" d="M64.4,116.6a54.3,54.3,0,1,1,54.2-54.2,54.3,54.3,0,0,1-54.2,54.2m0-103.3a49.1,49.1,0,1,0,49,49.1,49.1,49.1,0,0,0-49-49.1" transform="translate(-10.1 -8.1)"/></svg>