<svg id="Capa_1" data-name="Capa 1" xmlns="http://www.w3.org/2000/svg" viewBox="0 0 87.9 105.5"><defs><style>.cls-1{fill:#338ca0;}</style></defs><path class="cls-1" d="M85.9,114.5H20A10.9,10.9,0,0,1,9,103.6V20A10.9,10.9,0,0,1,20,9.1H85.9A10.9,10.9,0,0,1,96.9,20v83.6a10.9,10.9,0,0,1-11,10.9M20,13.5A6.5,6.5,0,0,0,13.4,20v83.6a6.6,6.6,0,0,0,6.6,6.6H85.9a6.7,6.7,0,0,0,6.6-6.6V20a6.6,6.6,0,0,0-6.6-6.5Z" transform="translate(-9 -9.1)"/><path class="cls-1" d="M81.5,61.8H72.7a2.2,2.2,0,0,1,0-4.4h8.8a2.2,2.2,0,0,1,0,4.4" transform="translate(-9 -9.1)"/><path class="cls-1" d="M81.5,48.6H72.7a2.2,2.2,0,1,1,0-4.4h8.8a2.2,2.2,0,1,1,0,4.4" transform="translate(-9 -9.1)"/><path class="cls-1" d="M81.5,75H72.7a2.2,2.2,0,0,1,0-4.4h8.8a2.2,2.2,0,0,1,0,4.4" transform="translate(-9 -9.1)"/><path class="cls-1" d="M81.5,88.2H72.7a2.2,2.2,0,1,1,0-4.4h8.8a2.2,2.2,0,0,1,0,4.4" transform="translate(-9 -9.1)"/><path class="cls-1" d="M81.5,101.4H24.4a2.2,2.2,0,1,1,0-4.4H81.5a2.2,2.2,0,0,1,0,4.4" transform="translate(-9 -9.1)"/><path class="cls-1" d="M44.2,88.2a22,22,0,1,1,21.9-22,22,22,0,0,1-21.9,22m0-39.6A17.6,17.6,0,1,0,61.7,66.2,17.6,17.6,0,0,0,44.2,48.6" transform="translate(-9 -9.1)"/><path class="cls-1" d="M30.2,82.4a2,2,0,0,1-1.6-.7,2.3,2.3,0,0,1,0-3.1L42,65.3V46.4a2.2,2.2,0,1,1,4.3,0V66.2a2.5,2.5,0,0,1-.6,1.6l-14,13.9a1.9,1.9,0,0,1-1.5.7" transform="translate(-9 -9.1)"/></svg>