<svg id="Capa_1" data-name="Capa 1" xmlns="http://www.w3.org/2000/svg" viewBox="0 0 103.6 103.6"><defs><style>.cls-1{fill:#898584;}</style></defs><path class="cls-1" d="M107.9,47.6a1.7,1.7,0,0,0-1.7-1.7H76.8V18.2a1.8,1.8,0,0,0-1.7-1.7,43.8,43.8,0,0,0-5.2.4V11.3a1.8,1.8,0,0,0-1.7-1.7H26.7a1.8,1.8,0,0,0-1.2.5L11.7,23.9a1.8,1.8,0,0,0-.5,1.2v86.4a1.7,1.7,0,0,0,1.7,1.7H68.2a1.8,1.8,0,0,0,1.7-1.7V81.7a29.6,29.6,0,0,0,5.2.4,32.8,32.8,0,0,0,32.8-32.8V47.6M73.3,20V46.9l-21,21a29.4,29.4,0,0,1,4.2-41.3A29.8,29.8,0,0,1,73.3,20M25,15.5v7.9H17.1Zm41.4,94.3H14.6V26.9H26.7a1.7,1.7,0,0,0,1.7-1.8V13h38v4.7a32.7,32.7,0,0,0,0,63.2Zm8.7-31.1a29.4,29.4,0,0,1-20.4-8.3L75.8,49.3h28.6A29.4,29.4,0,0,1,75.1,78.7" transform="translate(-11.2 -9.6)"/><path class="cls-1" d="M82,42.4h31.1a1.6,1.6,0,0,0,1.6-1.8h0A32.7,32.7,0,0,0,82,9.6a1.7,1.7,0,0,0-1.7,1.7V40.7A1.7,1.7,0,0,0,82,42.4m29.1-3.5H83.7V13.1a29.2,29.2,0,0,1,27.4,25.8" transform="translate(-11.2 -9.6)"/><path class="cls-1" d="M40.5,75.2A15.6,15.6,0,1,0,56.1,90.8,15.6,15.6,0,0,0,40.5,75.2m0,27.6a12.1,12.1,0,1,1,12.1-12,12.1,12.1,0,0,1-12.1,12" transform="translate(-11.2 -9.6)"/><path class="cls-1" d="M45.7,94.2a5.3,5.3,0,0,1-3.4,4.9v2H38.8v-2a5.2,5.2,0,0,1-3.4-4.9h3.4a1.7,1.7,0,0,0,1.7,1.7,1.7,1.7,0,0,0,1.8-1.7,1.8,1.8,0,0,0-1.8-1.7,5.2,5.2,0,0,1-5.1-5.2,5.3,5.3,0,0,1,3.4-4.9v-2h3.5v2a5.3,5.3,0,0,1,3.4,4.9H42.3a1.7,1.7,0,0,0-1.8-1.7,1.7,1.7,0,0,0,0,3.4,5.2,5.2,0,0,1,5.2,5.2" transform="translate(-11.2 -9.6)"/><rect class="cls-1" x="10.4" y="24.2" width="17.3" height="3.46"/><rect class="cls-1" x="10.4" y="34.5" width="17.3" height="3.46"/><rect class="cls-1" x="10.4" y="44.9" width="17.3" height="3.45"/><rect class="cls-1" x="10.4" y="55.3" width="17.3" height="3.46"/><rect class="cls-1" x="65.6" y="79.4" width="6.9" height="3.46"/><rect class="cls-1" x="76" y="79.4" width="27.6" height="3.46"/><rect class="cls-1" x="65.6" y="89.8" width="6.9" height="3.45"/><rect class="cls-1" x="76" y="89.8" width="27.6" height="3.45"/><rect class="cls-1" x="65.6" y="100.2" width="6.9" height="3.46"/><rect class="cls-1" x="76" y="100.2" width="27.6" height="3.46"/></svg>