<svg id="Capa_1" data-name="Capa 1" xmlns="http://www.w3.org/2000/svg" viewBox="0 0 94.3 113.1"><defs><style>.cls-1{fill:#898584;}</style></defs><path class="cls-1" d="M41.7,95.4H37.9A2,2,0,0,0,36,97.3a1.9,1.9,0,0,0,1.9,1.9h3.8a1.9,1.9,0,0,0,1.9-1.9,2,2,0,0,0-1.9-1.9" transform="translate(-13.4 -14.4)"/><path class="cls-1" d="M94.5,95.4H49.2a2,2,0,0,0-1.9,1.9,1.9,1.9,0,0,0,1.9,1.9H94.5a1.9,1.9,0,0,0,1.9-1.9,2,2,0,0,0-1.9-1.9" transform="translate(-13.4 -14.4)"/><path class="cls-1" d="M41.7,84.1H37.9A2,2,0,0,0,36,86a1.9,1.9,0,0,0,1.9,1.9h3.8A1.9,1.9,0,0,0,43.6,86a2,2,0,0,0-1.9-1.9" transform="translate(-13.4 -14.4)"/><path class="cls-1" d="M94.5,84.1H49.2A2,2,0,0,0,47.3,86a1.9,1.9,0,0,0,1.9,1.9H94.5A1.9,1.9,0,0,0,96.4,86a2,2,0,0,0-1.9-1.9" transform="translate(-13.4 -14.4)"/><path class="cls-1" d="M41.7,72.8H37.9a1.9,1.9,0,0,0,0,3.8h3.8a1.9,1.9,0,0,0,0-3.8" transform="translate(-13.4 -14.4)"/><path class="cls-1" d="M94.5,72.8H49.2a1.9,1.9,0,1,0,0,3.8H94.5a1.9,1.9,0,1,0,0-3.8" transform="translate(-13.4 -14.4)"/><path class="cls-1" d="M41.7,61.5H37.9A1.9,1.9,0,0,0,36,63.4a2,2,0,0,0,1.9,1.9h3.8a2,2,0,0,0,1.9-1.9,1.9,1.9,0,0,0-1.9-1.9" transform="translate(-13.4 -14.4)"/><path class="cls-1" d="M94.5,61.5H49.2a1.9,1.9,0,0,0-1.9,1.9,2,2,0,0,0,1.9,1.9H94.5a2,2,0,0,0,1.9-1.9,1.9,1.9,0,0,0-1.9-1.9" transform="translate(-13.4 -14.4)"/><path class="cls-1" d="M41.7,50.2H37.9A1.9,1.9,0,0,0,36,52.1,2,2,0,0,0,37.9,54h3.8a2,2,0,0,0,1.9-1.9,1.9,1.9,0,0,0-1.9-1.9" transform="translate(-13.4 -14.4)"/><path class="cls-1" d="M94.5,50.2H49.2a1.9,1.9,0,0,0-1.9,1.9A2,2,0,0,0,49.2,54H94.5a2,2,0,0,0,1.9-1.9,1.9,1.9,0,0,0-1.9-1.9" transform="translate(-13.4 -14.4)"/><path class="cls-1" d="M107.6,42.5V42a.1.1,0,0,1-.1-.1l-.4-.6L80.7,14.9l-.5-.4H26.6a1.8,1.8,0,0,0-1.9,1.8v5.7H15.3a1.8,1.8,0,0,0-1.9,1.9V125.6a1.8,1.8,0,0,0,1.9,1.9H94.5a1.9,1.9,0,0,0,1.9-1.9v-9.4h9.4a2,2,0,0,0,1.9-1.9V42.6h-.1M81.3,20.8l19.9,20H81.3ZM92.6,123.7H17.2v-98h7.5v88.6a1.9,1.9,0,0,0,1.9,1.9h66Zm11.3-11.3H28.5V18.1h49V42.6a1.8,1.8,0,0,0,1.9,1.9h24.5Z" transform="translate(-13.4 -14.4)"/><path class="cls-1" d="M49.2,31.3H37.9A2,2,0,0,0,36,33.2V44.5a1.9,1.9,0,0,0,1.9,1.9H49.2a1.8,1.8,0,0,0,1.9-1.9V33.2a1.9,1.9,0,0,0-1.9-1.9M47.3,42.6H39.8V35.1h7.5Z" transform="translate(-13.4 -14.4)"/></svg>