<svg id="Capa_1" data-name="Capa 1" xmlns="http://www.w3.org/2000/svg" viewBox="0 0 348.3 101.9"><defs><style>.cls-1{fill:#fc0;}.cls-1,.cls-2,.cls-3{fill-rule:evenodd;}.cls-2{fill:#1d1d1b;}.cls-3{fill:#312783;}</style></defs><path class="cls-1" d="M83.8,49.1c23.1-15.4,54.6-22.5,84.5-25.5,61.1-6,143,24.6,163.7,68.4-.3,2.6-4.3,1.6-9.2-.5C301.5,60,242.6,43.7,201,43.1c-33.6-.5-78.5,8.9-102.9,27.4C90,76.7,75.8,100.4,63.7,93.3,45.7,82.8,73.5,56,83.8,49.1" transform="translate(-14.4 -22.9)"/><path class="cls-2" d="M29.3,84.3,28,62.7,39.8,62l.2,4.2-6.7.4.3,3.9,6.2-.4.3,4.4-6.2.4.5,9.1ZM54.1,66.6l.8,16.2-4.2.3v-2A5.7,5.7,0,0,1,49,82.9a5.7,5.7,0,0,1-2.2.7,3.5,3.5,0,0,1-2.9-1.1,7.7,7.7,0,0,1-1-4l-.6-11.3,4.5-.2.5,10a6.9,6.9,0,0,0,.4,2.4.8.8,0,0,0,.9.4,1.3,1.3,0,0,0,1.2-.7,5.8,5.8,0,0,0,.3-2.1l-.5-10.2Zm4,16.1-.8-16.3,4.3-.2v2a4.5,4.5,0,0,1,3.8-2.5,3.4,3.4,0,0,1,2.8,1.2,6.5,6.5,0,0,1,1,3.9l.6,11.3-4.5.2-.5-10a6.9,6.9,0,0,0-.4-2.4.8.8,0,0,0-.9-.4,1.1,1.1,0,0,0-1.1.7,4.1,4.1,0,0,0-.4,2.1l.5,10.2ZM78.2,69a1.2,1.2,0,0,0-1.2.9,20,20,0,0,0-.1,3.9,20.1,20.1,0,0,0,.4,4,1.1,1.1,0,0,0,1.1.7,1.3,1.3,0,0,0,1.2-1c.3-.6.3-2.3.2-5a12.1,12.1,0,0,0-.4-2.8,1.3,1.3,0,0,0-1.2-.7m5.5-9.1.9,21.6-4.2.2V79.9a5,5,0,0,1-1.5,1.7,4.8,4.8,0,0,1-2,.7A5.2,5.2,0,0,1,75,82a3,3,0,0,1-1.3-.9,5.4,5.4,0,0,1-1-2c-.1-.9-.3-2.5-.4-4.8s.1-6.1.7-7.2a3.3,3.3,0,0,1,3.2-1.9,4.1,4.1,0,0,1,1.9.4,4.3,4.3,0,0,1,1.4,1.3l-.3-6.8Zm11,13.4a7.8,7.8,0,0,0-2.6,1.3,2.6,2.6,0,0,0-.7,1.9,2.1,2.1,0,0,0,.4,1.2,1.2,1.2,0,0,0,1.1.4c.7,0,1.2-.2,1.4-.7a4.3,4.3,0,0,0,.4-2.3Zm.8,7.8-.3-1.5a6.6,6.6,0,0,1-1.9,1.5,5,5,0,0,1-2.1.5,4.1,4.1,0,0,1-3.1-1.1,4.5,4.5,0,0,1-1.2-3.3,4.4,4.4,0,0,1,.8-3.1,8.3,8.3,0,0,1,3-2.2l1.4-.5c1.7-.7,2.5-1.4,2.5-2.2a1.8,1.8,0,0,0-.4-1.1,1.8,1.8,0,0,0-1.1-.3,1.7,1.7,0,0,0-1.2.5,2.6,2.6,0,0,0-.3,1.6H87A5.3,5.3,0,0,1,88.4,66,7.2,7.2,0,0,1,93,64.5a9.4,9.4,0,0,1,2.5.2,4.7,4.7,0,0,1,1.9.7,3.3,3.3,0,0,1,1.4,1.5,10.3,10.3,0,0,1,.5,3.3v.5l.2,5.7a21.1,21.1,0,0,0,.2,3,6,6,0,0,0,.5,1.6Zm13.9-6.8h4.5v.6a6.5,6.5,0,0,1-1.3,4.7,5.7,5.7,0,0,1-4.3,1.7c-2.3,0-3.8-.5-4.8-1.8s-1.4-3.4-1.5-6.6.3-5.4,1.1-6.7,2.5-2,4.7-2a5.6,5.6,0,0,1,4.4,1.4,6.8,6.8,0,0,1,1.5,4.7v.3h-4.3v-.5a4.9,4.9,0,0,0-.3-2,1.1,1.1,0,0,0-1.1-.6,1,1,0,0,0-1.1.8,15.5,15.5,0,0,0-.2,4.4A17.3,17.3,0,0,0,107,77a1,1,0,0,0,1.2.8,1.1,1.1,0,0,0,1-.6,5.8,5.8,0,0,0,.3-2.1.8.8,0,0,0-.1-.4v-.4m7-11.6v-4h4.5v4Zm.4,17.8-.3-16.2H121l.4,16.2Zm11.7-8.3a18.5,18.5,0,0,0,.3,4.3,1.3,1.3,0,0,0,1.2.8,1.1,1.1,0,0,0,1.1-.8,18.4,18.4,0,0,0,.3-4.4,22.2,22.2,0,0,0-.4-4.3,1.1,1.1,0,0,0-1.2-.8,1.1,1.1,0,0,0-1.1.9,15,15,0,0,0-.2,4.3m-4.6,0c-.1-3.1.4-5.3,1.2-6.6s2.5-2,4.7-2,3.8.6,4.7,1.8,1.4,3.5,1.5,6.7-.4,5.3-1.3,6.6-2.4,2-4.6,2-3.8-.6-4.8-1.8-1.4-3.5-1.4-6.7m3.7-9.9,2.7-4h4.1l-4.8,4.1Zm11.2,17.8-.2-16.2h4.2v2a4.7,4.7,0,0,1,1.6-1.8,5.6,5.6,0,0,1,2.3-.5,3.2,3.2,0,0,1,2.7,1.2,7,7,0,0,1,.9,4l.2,11.3h-4.5l-.2-10a9.6,9.6,0,0,0-.2-2.4,1.1,1.1,0,0,0-.9-.5,1.4,1.4,0,0,0-1.2.8,3.7,3.7,0,0,0-.4,2V80.1Zm22.7-.2V58.3h5.2L171,71.6c-.2-2.2-.3-4.2-.4-5.8s-.1-3-.1-4.1V58.3H175V79.9h-5.3l-4.2-13.7c.2,1.8.3,3.5.4,5.2s.2,3.3.2,4.9v3.6Zm28.6-16.1V80h-4.2V78a4.6,4.6,0,0,1-1.7,1.7,4,4,0,0,1-2.2.6,3.3,3.3,0,0,1-2.8-1.3,6.5,6.5,0,0,1-.8-4V63.7h4.6v10a10,10,0,0,0,.2,2.5,1,1,0,0,0,.9.4,1.2,1.2,0,0,0,1.2-.7,3.7,3.7,0,0,0,.5-2V63.7Zm10.4,10.6h4.2v.4a5.4,5.4,0,0,1-1.5,4.2,6,6,0,0,1-4.4,1.4,7.7,7.7,0,0,1-2.7-.4,4.4,4.4,0,0,1-1.9-1.2,5.5,5.5,0,0,1-1.1-2.3,19.2,19.2,0,0,1-.2-4.5,25.7,25.7,0,0,1,.3-4.8,7.1,7.1,0,0,1,1.2-2.3,5.6,5.6,0,0,1,2-1.2,7.7,7.7,0,0,1,2.7-.4,7.8,7.8,0,0,1,2.8.5,4.5,4.5,0,0,1,1.9,1.4,3.7,3.7,0,0,1,.8,1.8,14.8,14.8,0,0,1,.3,3.6v1.9h-7.3a.1.1,0,0,0-.1.1v1.5a7,7,0,0,0,.3,2.4,1.4,1.4,0,0,0,1.3.6c.5,0,.9-.1,1.1-.5a2.1,2.1,0,0,0,.4-1.5v-.8m-2.9-4.6h3.1v-.9a3.7,3.7,0,0,0-.3-1.7,1.4,1.4,0,0,0-1.2-.6,1.4,1.4,0,0,0-1.2.5,3.2,3.2,0,0,0-.4,1.9v.9m12.1,10.4-3.2-16.3H211l1.4,11.1,1.8-11h4.5l-3.9,16.1Zm14.7-7.8a31.6,31.6,0,0,0,.2,4.3,1.2,1.2,0,0,0,2.3.1,15.5,15.5,0,0,0,.4-4.3,15.5,15.5,0,0,0-.2-4.4,1.1,1.1,0,0,0-1.1-.8,1.3,1.3,0,0,0-1.2.8,22.2,22.2,0,0,0-.4,4.3m-4.6-.1c.1-3.2.6-5.4,1.6-6.6s2.5-1.9,4.7-1.8,3.7.7,4.6,2,1.3,3.5,1.2,6.7-.6,5.4-1.5,6.6-2.5,1.8-4.7,1.8-3.8-.7-4.7-2-1.2-3.5-1.2-6.7M242.3,81l.7-21.6h5l-.2,8.2h4l.3-8.1H257l-.6,21.6h-5l.3-9h-4.1l-.2,9Zm21.8-7.4a23.6,23.6,0,0,0,.1,4.3,1.1,1.1,0,0,0,1.1.9,1.1,1.1,0,0,0,1.2-.8,17.6,17.6,0,0,0,.5-4.3,23.1,23.1,0,0,0-.1-4.3,1.1,1.1,0,0,0-1.1-.9,1.2,1.2,0,0,0-1.2.8,19.4,19.4,0,0,0-.5,4.3m-4.6-.2c.1-3.1.7-5.3,1.6-6.6s2.6-1.8,4.8-1.7,3.7.8,4.6,2.1,1.2,3.5,1.1,6.7-.7,5.4-1.6,6.6-2.6,1.8-4.8,1.7-3.7-.8-4.6-2.1-1.2-3.5-1.1-6.7m14.3,8.7.7-16.2,4.2.2v2.2a6.9,6.9,0,0,1,1.7-1.7,4.8,4.8,0,0,1,2-.7l-.2,5.1h-1.3a1.7,1.7,0,0,0-1.6.7,6.4,6.4,0,0,0-.5,3l-.4,7.8Zm10.9-17.4.2-3.9,4.5.2-.2,3.9Zm-.9,17.9.8-16.3,4.5.2-.7,16.3Zm6.6.3.2-3.3,6-9-5.2-.2.2-3.8,10,.6-.2,3.4-5.9,8.9,5.5.2-.2,3.7Zm17-7.3a16.7,16.7,0,0,0,.1,4.3c.2.6.5.9,1.1.9a1.2,1.2,0,0,0,1.2-.7,19.4,19.4,0,0,0,.5-4.3,17.3,17.3,0,0,0-.1-4.4,1.2,1.2,0,0,0-1-.9,1.2,1.2,0,0,0-1.2.8,17.3,17.3,0,0,0-.6,4.3m-4.6-.2q.3-4.8,1.8-6.6c.9-1.2,2.5-1.8,4.7-1.7s3.8.9,4.6,2.2,1.2,3.5,1,6.7-.7,5.4-1.7,6.6-2.6,1.7-4.8,1.6-3.7-.8-4.6-2.1-1.1-3.6-1-6.7m14.3,8.9,1-16.2,4.2.2v1.9a8.6,8.6,0,0,1,1.8-1.6,5.6,5.6,0,0,1,2.3-.4,3.2,3.2,0,0,1,2.6,1.4,6.7,6.7,0,0,1,.7,4.1L328.9,85l-4.5-.3.6-10a8.3,8.3,0,0,0-.1-2.5.9.9,0,0,0-.9-.5,1.3,1.3,0,0,0-1.2.7,3.7,3.7,0,0,0-.5,2l-.6,10.1Zm22.1,1.3h-2.5a3.8,3.8,0,0,1-2.2-.6,2.6,2.6,0,0,1-1.4-1.3l-.3-1.4c0-.6,0-1.5.1-2.6v-2l.4-5.5h-1.8l.2-3.3h1.8l.3-4.5,4.5.3-.3,4.5h2.2l-.2,3.4-2.2-.2-.4,6.6a6.6,6.6,0,0,0,.1,2.7,1.4,1.4,0,0,0,1.2.5h.6Zm9.8-5,4.3.3v.4a5.4,5.4,0,0,1-1.7,4.1,6.5,6.5,0,0,1-4.6,1.2,11,11,0,0,1-2.6-.6,5.2,5.2,0,0,1-1.8-1.3,4.3,4.3,0,0,1-.9-2.4,16.3,16.3,0,0,1,0-4.5,20.1,20.1,0,0,1,.6-4.8,4.4,4.4,0,0,1,1.3-2.1,3.6,3.6,0,0,1,2-1.1,6.4,6.4,0,0,1,2.8-.3,6.7,6.7,0,0,1,2.7.7,3.7,3.7,0,0,1,1.8,1.4,4.6,4.6,0,0,1,.8,1.9,20.7,20.7,0,0,1,0,3.6v2l-7.4-.5h0a13.9,13.9,0,0,1-.2,1.5,7.6,7.6,0,0,0,.2,2.4,1.4,1.4,0,0,0,1.2.7,1.2,1.2,0,0,0,1.2-.4,2.1,2.1,0,0,0,.5-1.5v-.7h0m-2.6-4.8,3.1.2h0c0-.4.1-.7.1-.9a3.1,3.1,0,0,0-.3-1.8,1.1,1.1,0,0,0-1.1-.6,1.4,1.4,0,0,0-1.3.5,3.4,3.4,0,0,0-.4,1.8,1.1,1.1,0,0,0-.1.5v.4" transform="translate(-14.4 -22.9)"/><path class="cls-2" d="M85.3,108.4v9.5a7.5,7.5,0,0,1-1.4,4.7,6.5,6.5,0,0,1-4,2.1,5.8,5.8,0,0,1-4-.8,4.5,4.5,0,0,1-1.8-3.2,2.8,2.8,0,0,1-.1-.9v-9.9l2-.3v10.7a3.7,3.7,0,0,0,1.2,2.1,3.4,3.4,0,0,0,2.5.4,4,4,0,0,0,2.2-.9,2.9,2.9,0,0,0,1.1-1.6,10.4,10.4,0,0,0,.3-2.8v-8.8Zm4.6,4.7v1.8h.1a4.8,4.8,0,0,1,3-2.4,2.2,2.2,0,0,1,1.9.7,3.4,3.4,0,0,1,.9,2.1,1.9,1.9,0,0,1,.1.8l-.2,6.3-1.8.3v-6.5a1.3,1.3,0,0,0-.1-.6,1.6,1.6,0,0,0-.4-1.1.9.9,0,0,0-.9-.3l-.6.2-.7.5-.9,1a5.9,5.9,0,0,0-.5.8v6.5l-1.9.2.2-10.1Zm16.6-2v1.8h.1a4.5,4.5,0,0,1,3.1-2.3,2.3,2.3,0,0,1,1.9.7,4,4,0,0,1,.8,2.1,1.9,1.9,0,0,1,.1.8l-.3,6.3-1.8.3.2-6.5v-.6a2.3,2.3,0,0,0-.5-1.1,1.1,1.1,0,0,0-.9-.4c-.2.1-.4.1-.6.3l-.7.5-.9,1-.5.8-.2,6.4-1.9.2.3-10.1Zm16.3-1.7-.4,10.1-1.9.2V118a5.5,5.5,0,0,1-3.1,2.2,2.8,2.8,0,0,1-1.8-.6,2.9,2.9,0,0,1-.9-2v-.8l.3-6.6,1.9-.2-.3,6.7v.6c.1,1,.5,1.4,1.3,1.4s1.7-1,2.7-2.5l.3-6.6Zm10,6.5v1.8a5.5,5.5,0,0,1-3.2,1.4,4,4,0,0,1-3.2-1,5.1,5.1,0,0,1-1.4-3.4,6,6,0,0,1,.9-4.2,4.4,4.4,0,0,1,3.2-2,3.4,3.4,0,0,1,2.7.9,5.2,5.2,0,0,1,1.3,2.9v1l-6.2.6a1.4,1.4,0,0,0,0,.9,3.4,3.4,0,0,0,.9,2.1,2.4,2.4,0,0,0,2,.6,6.1,6.1,0,0,0,3.1-1.6m-5.9-3.4,4.2-.4a3.4,3.4,0,0,0-.6-1.6,1.7,1.7,0,0,0-1.4-.4c-1.1.1-1.8.9-2.2,2.4m15.1-4.9-4.2,10.6h-.9l-3.2-9.9,1.9-.2,1.9,6.2,2.6-6.6Zm4.8-.7a3.4,3.4,0,0,1,2.8,1,4.3,4.3,0,0,1,1.3,3.1,7,7,0,0,1-1,4.6,4.2,4.2,0,0,1-3.2,2,3.4,3.4,0,0,1-2.9-1,4.9,4.9,0,0,1-1.2-3.2,6.4,6.4,0,0,1,1-4.4,4.1,4.1,0,0,1,3.2-2.1m.2,1.5a2.5,2.5,0,0,0-1.9,1.6,6.7,6.7,0,0,0-.6,3.5,3,3,0,0,0,.7,1.8,1.6,1.6,0,0,0,1.3.7,2.5,2.5,0,0,0,1.9-1.5,6.5,6.5,0,0,0,.6-3.5,4,4,0,0,0-.7-2,1.8,1.8,0,0,0-1.3-.6m20.4-2.7-.7,10-1.8.2v-1.2h0a3.9,3.9,0,0,1-2.6,1.6,3.3,3.3,0,0,1-2.4-1,4.1,4.1,0,0,1-1.1-2.8,6.1,6.1,0,0,1,1.4-4.8,6.9,6.9,0,0,1,4.9-2.2,8.6,8.6,0,0,1,2.3.2m-2.3,7.3.4-5.8h-.6a4.1,4.1,0,0,0-3.3,1.6,4.9,4.9,0,0,0-.9,3.3,2.9,2.9,0,0,0,.7,1.9,1.7,1.7,0,0,0,1.4.7,2.8,2.8,0,0,0,1.5-.8l.8-.9m6.7-7.6-.2,1.7A5.1,5.1,0,0,1,175,105q2-.1,2.4,2.1a4.9,4.9,0,0,1,3.6-2.5,2.4,2.4,0,0,1,1.7.6,2.8,2.8,0,0,1,.8,2v.9l-.5,6.5-1.9.2.5-6.6a2,2,0,0,0,.1-.7c-.1-.9-.5-1.4-1.2-1.4l-.6.2-.7.4-1.1,1c-.4.5-.6.8-.6,1L177,115l-1.9.2.5-6.4V108c0-1-.5-1.5-1.3-1.5a3.3,3.3,0,0,0-1.7,1.2c-.7.8-1.1,1.2-1.1,1.4l-.5,6.3-1.9.2.8-10.1Zm22.7-1.4-.9,10.1h-1.9V113h0a3.7,3.7,0,0,1-2.6,1.5,2.9,2.9,0,0,1-2.4-1,3.9,3.9,0,0,1-1.1-2.7,6.6,6.6,0,0,1,1.5-4.8,6.9,6.9,0,0,1,4.9-2.2,9.3,9.3,0,0,1,2.4.2m-2.5,7.3.5-5.8h-.6a4.1,4.1,0,0,0-3.3,1.6,4.2,4.2,0,0,0-1,3.2,2.7,2.7,0,0,0,.6,1.9c.5.5.9.8,1.5.7a2.6,2.6,0,0,0,1.5-.7c.5-.5.8-.8.8-.9m6.9-7.5v1.8h0a4.2,4.2,0,0,1,3.2-2.1,2.2,2.2,0,0,1,1.9.7,3.8,3.8,0,0,1,.7,2.2v.8l-.6,6.3h-1.9l.6-6.4v-.6a1.6,1.6,0,0,0-.4-1.2.8.8,0,0,0-.8-.3h-.6l-.8.5-.9.9c-.4.5-.6.7-.6.8l-.6,6.4h-1.8l.9-10Zm15.5,6.6-.2,1.9a5.3,5.3,0,0,1-3.2,1.2,3.5,3.5,0,0,1-3.1-1.2,4.8,4.8,0,0,1-1.3-3.4,6.6,6.6,0,0,1,1.1-4.2,4.6,4.6,0,0,1,3.3-1.8,3.2,3.2,0,0,1,2.6,1,5.1,5.1,0,0,1,1.2,3,2.8,2.8,0,0,1-.1.9l-6.2.3v1a2.9,2.9,0,0,0,.8,2.1,2.7,2.7,0,0,0,1.9.8,6,6,0,0,0,3.2-1.6m-5.7-3.6,4.2-.2a2.5,2.5,0,0,0-.5-1.6,1.5,1.5,0,0,0-1.4-.5c-1.1,0-1.8.8-2.3,2.3m14.8,3.7v1.8a5.7,5.7,0,0,1-2.8.8,3.9,3.9,0,0,1-3.2-1.1,4.6,4.6,0,0,1-1.4-3.3,5.4,5.4,0,0,1,1.7-4.3,6.1,6.1,0,0,1,4.5-2H224l-.2,1.7h-1.5a4.7,4.7,0,0,0-3.2,1.4,4.4,4.4,0,0,0-1.2,3,3.7,3.7,0,0,0,.9,2.2,2.4,2.4,0,0,0,2,.7,4.8,4.8,0,0,0,2.7-.9m9.3-.7-.3,1.8a5.3,5.3,0,0,1-3.2,1.2,4.1,4.1,0,0,1-3.1-1.2,5.5,5.5,0,0,1-1.3-3.5,5.7,5.7,0,0,1,1.2-4.1,4,4,0,0,1,3.3-1.8,3.2,3.2,0,0,1,2.6,1,4.4,4.4,0,0,1,1.1,3v1l-6.2.2a2.8,2.8,0,0,0-.1.9,2.9,2.9,0,0,0,.8,2.2,2.5,2.5,0,0,0,2,.7,6.1,6.1,0,0,0,3.2-1.4m-5.7-3.7,4.2-.2a2.6,2.6,0,0,0-.6-1.6,1.5,1.5,0,0,0-1.3-.6c-1.1.1-1.9.8-2.3,2.4m10.6-3.9-.2,1.9h.1a8.4,8.4,0,0,1,1.3-1.8,1.9,1.9,0,0,1,1.2-.4h.9v2.1a2.3,2.3,0,0,0-1.1-.3l-1,.4c-.3.1-.6.6-1,1.2a4,4,0,0,0-.6,1.1l-.6,5.6h-1.9l1.1-10Zm13.7-2.9-.3,2.5a4.7,4.7,0,0,1,1.7-.3,4.1,4.1,0,0,1,3,1.2,4.9,4.9,0,0,1,1.3,3.3,6.4,6.4,0,0,1-1.5,4.2,5.3,5.3,0,0,1-4.4,1.9h-1.3l-.5,4.8h-1.9l1.5-12.6a3.8,3.8,0,0,0-1.1,1.1l-.5.7c-.1,0-.1,0-.1-.1a3.2,3.2,0,0,1,.5-1.5,10.1,10.1,0,0,1,1.3-1.6l.5-3.7Zm-.4,3.9-.9,7.4h1a3.8,3.8,0,0,0,3-1.3,4.9,4.9,0,0,0,1.1-3.1,4.3,4.3,0,0,0-.9-2.4,3,3,0,0,0-2.1-.8l-1.2.3m16.8-1.7-1.3,10h-1.8v-1.1h0a3.8,3.8,0,0,1-2.7,1.5,3,3,0,0,1-2.3-1.1,4.6,4.6,0,0,1-1.1-2.8,6.8,6.8,0,0,1,1.7-4.7,6.9,6.9,0,0,1,5-2,8.8,8.8,0,0,1,2.4.3m-2.8,7.1.7-5.7c-.2,0-.4-.1-.6,0a3.9,3.9,0,0,0-3.3,1.4,4.5,4.5,0,0,0-1.1,3.2,3.2,3.2,0,0,0,.6,2,1.5,1.5,0,0,0,1.4.7,2.1,2.1,0,0,0,1.5-.7c.5-.4.8-.7.8-.9m7.4-7.2-.3,1.9h.1a5.3,5.3,0,0,1,1.4-1.7,1.7,1.7,0,0,1,1.2-.5l.8.2v2.1a2.7,2.7,0,0,0-1.2-.3,1.7,1.7,0,0,0-1,.3,4.4,4.4,0,0,0-1,1.2,4,4,0,0,0-.6,1.1l-.7,5.6h-1.9l1.2-10Zm12.4-.1a8.8,8.8,0,0,0-2.4-.3,6.1,6.1,0,0,0-4.9,1.9,6.4,6.4,0,0,0-1.8,4.7,4.5,4.5,0,0,0,1,2.8,3,3,0,0,0,2.4,1.1,4,4,0,0,0,2.7-1.4h0l-.2,1.2h1.9Zm-2.8,7.1-.8.9a3.3,3.3,0,0,1-1.5.7,1.9,1.9,0,0,1-1.5-.8,3.7,3.7,0,0,1-.5-2,4.1,4.1,0,0,1,1.1-3.1,3.9,3.9,0,0,1,3.4-1.5h.5ZM296.1,96,294,111.2h-1.9L294.2,96Zm9.6,5.1-1.4,10h-1.9l.2-1.2h0a4,4,0,0,1-2.7,1.4,3.1,3.1,0,0,1-2.4-1.2,4.5,4.5,0,0,1-.9-2.8,6.8,6.8,0,0,1,1.7-4.7,7.3,7.3,0,0,1,5-1.9,8.8,8.8,0,0,1,2.4.3m-2.9,7.2.8-5.8h-.5a3.9,3.9,0,0,0-3.4,1.4,4.7,4.7,0,0,0-1.2,3.2,2.9,2.9,0,0,0,.6,1.9,1.6,1.6,0,0,0,1.4.8,2.5,2.5,0,0,0,1.5-.7c.5-.4.8-.7.8-.8m18.8-7.1-5.2,10.2h-.9l-2.3-10.1h1.9l1.3,6.3,3.2-6.3Zm1.3-3.2a.9.9,0,0,1,.3-.7,1.3,1.3,0,0,1,.8-.3,1,1,0,0,1,1.1,1.1.9.9,0,0,1-.3.7,1.1,1.1,0,0,1-1.9-.8m1.7,3.2h-1.9l-1.4,10h1.8Zm11.1-5.1-2.3,15.1a9.5,9.5,0,0,1-2.5.3,5.7,5.7,0,0,1-3.9-1.2,4.4,4.4,0,0,1-1.4-3.4,6.5,6.5,0,0,1,1.9-4.1,6,6,0,0,1,4.8-1.9h.8l.7-4.8Zm-4,13.8,1.1-7.4h-.5a4.5,4.5,0,0,0-3.4,1.3,3.8,3.8,0,0,0-1.3,3,3.2,3.2,0,0,0,.8,2.3,3.3,3.3,0,0,0,2.5.9h.8m13.7-8.5-1.5,9.9H342l.2-1.1h0a3.6,3.6,0,0,1-2.7,1.4,3,3,0,0,1-2.4-1.2,4.5,4.5,0,0,1-.9-2.8,6.6,6.6,0,0,1,1.8-4.7,7.1,7.1,0,0,1,5.1-1.8,8.5,8.5,0,0,1,2.3.4m-2.9,7,.8-5.7h-.5a4.1,4.1,0,0,0-3.5,1.3,6.3,6.3,0,0,0-1.2,3.2,3.2,3.2,0,0,0,.6,2,2,2,0,0,0,1.4.8,2.6,2.6,0,0,0,1.5-.7l.9-.9" transform="translate(-14.4 -22.9)"/><path class="cls-3" d="M14.4,92.7C131.7,79.6,205,85.4,362.7,94.2c-116.2-2.4-182.2.7-306.8,15.2C41,102.1,32.1,97.2,14.4,92.7" transform="translate(-14.4 -22.9)"/></svg>