<svg id="Capa_1" data-name="Capa 1" xmlns="http://www.w3.org/2000/svg" viewBox="0 0 95.3 95.3"><defs><style>.cls-1{fill:#255f6c;}</style></defs><path class="cls-1" d="M96.1,107.7H91.7a3,3,0,0,1-3-3,2.9,2.9,0,0,1,3-3h4.4a2.9,2.9,0,0,1,3,3,3,3,0,0,1-3,3" transform="translate(-3.8 -12.3)"/><path class="cls-1" d="M11.2,107.7H6.8a3,3,0,0,1-3-3,2.9,2.9,0,0,1,3-3h4.4a2.9,2.9,0,0,1,3,3,3,3,0,0,1-3,3" transform="translate(-3.8 -12.3)"/><path class="cls-1" d="M81.2,107.7H21.7a3,3,0,0,1-3-3,2.9,2.9,0,0,1,3-3H81.2a2.9,2.9,0,0,1,3,3,3,3,0,0,1-3,3" transform="translate(-3.8 -12.3)"/><path class="cls-1" d="M51.4,94.9a8.5,8.5,0,0,1-6-2.5L20.3,67.3a9.9,9.9,0,0,1-3-7.3A10.1,10.1,0,0,1,27.5,49.7h.1A10.2,10.2,0,0,1,35,52.8l6,6v-36a10.5,10.5,0,1,1,20.9,0v36L68,52.7a10,10,0,0,1,7.3-3.1,10.2,10.2,0,0,1,7.2,3,10,10,0,0,1,3.1,7.3,10.6,10.6,0,0,1-3.1,7.5l-25,25a8.5,8.5,0,0,1-6.1,2.5M27.6,55.7h0a4.3,4.3,0,0,0-3.1,1.2,4.3,4.3,0,0,0,0,6.2L49.6,88.2a2.7,2.7,0,0,0,3.7,0l25-25a4.9,4.9,0,0,0,1.3-3.3,4.2,4.2,0,0,0-1.2-3,4.8,4.8,0,0,0-3.1-1.3,4.4,4.4,0,0,0-3.1,1.3L61,68.1a3.1,3.1,0,0,1-3.3.6A2.9,2.9,0,0,1,55.9,66V22.8a4.5,4.5,0,1,0-8.9,0V66a3,3,0,0,1-1.9,2.7,2.9,2.9,0,0,1-3.2-.6L30.8,57a4.2,4.2,0,0,0-3.2-1.3" transform="translate(-3.8 -12.3)"/></svg>