<svg id="Capa_1" data-name="Capa 1" xmlns="http://www.w3.org/2000/svg" viewBox="0 0 91.2 119.8"><defs><style>.cls-1{fill:#898584;}</style></defs><path class="cls-1" d="M104.1,91.4a2.3,2.3,0,0,1,2.3,2.3,2.3,2.3,0,0,1-2.3,2.4,2.4,2.4,0,0,1-2.4-2.4,2.3,2.3,0,0,1,2.4-2.3" transform="translate(-15.2 -9.3)"/><path class="cls-1" d="M105.7,9.9a2.3,2.3,0,0,0-1.6-.6H17.5a2.3,2.3,0,0,0-1.6.6,2.3,2.3,0,0,0-.7,1.7V126.7a2.3,2.3,0,0,0,.7,1.7,2.3,2.3,0,0,0,1.6.6h86.6a2.3,2.3,0,0,0,1.6-.6,2.3,2.3,0,0,0,.7-1.7V104.2a2.4,2.4,0,0,0-4.7,0v20.2H19.9V13.9h81.8V83.2a2.3,2.3,0,0,0,2.4,2.3,2.3,2.3,0,0,0,2.3-2.3V11.6a2.3,2.3,0,0,0-.7-1.7" transform="translate(-15.2 -9.3)"/><path class="cls-1" d="M74.8,24.5a2.4,2.4,0,0,0,2.4-2.4,2.3,2.3,0,0,0-2.4-2.3h-28a2.3,2.3,0,0,0-2.4,2.3,2.4,2.4,0,0,0,2.4,2.4Z" transform="translate(-15.2 -9.3)"/><path class="cls-1" d="M84.5,77a2.3,2.3,0,0,0,2.3-2.4V65.3a2.3,2.3,0,0,0-2.3-2.4H75.1a2.3,2.3,0,0,0-2.3,2.4v2.3H61.6L53,59.1V50.2h9.4a2.3,2.3,0,0,0,2.3-2.3V32.7a2.3,2.3,0,0,0-2.3-2.4H39a2.4,2.4,0,0,0-2.4,2.4V47.9A2.3,2.3,0,0,0,39,50.2h9.3v8.9l-9.2,9.2a2.4,2.4,0,0,0,0,3.3l9.2,9.3v6H40.7a2.3,2.3,0,0,0-2.3,2.4v9.3a2.3,2.3,0,0,0,2.3,2.4h7.6v4.6H40.7a2.3,2.3,0,0,0-2.3,2.4v9.3a2.3,2.3,0,0,0,2.3,2.4H60.6a2.4,2.4,0,0,0,2.4-2.4V108a2.4,2.4,0,0,0-2.4-2.4H53V101h7.6A2.4,2.4,0,0,0,63,98.6V89.3a2.4,2.4,0,0,0-2.4-2.4H53v-6l8.6-8.6H72.8v2.3A2.3,2.3,0,0,0,75.1,77h2.4v9.9H75.1a2.3,2.3,0,0,0-2.3,2.4v9.3a2.3,2.3,0,0,0,2.3,2.4h2.4v4.6H75.1a2.3,2.3,0,0,0-2.3,2.4v9.3a2.3,2.3,0,0,0,2.3,2.4h9.4a2.3,2.3,0,0,0,2.3-2.4V108a2.3,2.3,0,0,0-2.3-2.4H82.1V101h2.4a2.3,2.3,0,0,0,2.3-2.4V89.3a2.3,2.3,0,0,0-2.3-2.4H82.1V77ZM41.3,35H60V45.5H41.3Zm17,80H43.1v-4.7H58.3Zm0-18.7H43.1V91.6H58.3ZM50.7,76.6,44,70l6.7-6.7L57.3,70ZM82.1,115H77.5v-4.7h4.6Zm0-18.7H77.5V91.6h4.6ZM77.5,67.6h4.7v4.7H77.5Z" transform="translate(-15.2 -9.3)"/></svg>