<svg id="Capa_1" data-name="Capa 1" xmlns="http://www.w3.org/2000/svg" viewBox="0 0 106.3 106.4"><defs><style>.cls-1{fill:#898584;}</style></defs><path class="cls-1" d="M113.1,82.4h-1.7V27.5a10.3,10.3,0,0,0-10.3-10.3H70a8.6,8.6,0,0,0-16.8,0h-31A10.3,10.3,0,0,0,11.9,27.5V82.4H10.2a1.7,1.7,0,0,0-1.7,1.7V91A8.5,8.5,0,0,0,17,99.5H62.5a15.4,15.4,0,0,0-.9,5.2V115a1.8,1.8,0,0,0,1.7,1.7h41.2a1.7,1.7,0,0,0,1.7-1.7V104.7a15.4,15.4,0,0,0-.9-5.2h.9a8.5,8.5,0,0,0,8.6-8.5V84.1a1.8,1.8,0,0,0-1.7-1.7m-5.2-54.9V82.4H97.2a13.2,13.2,0,0,0,.4-3.4h5.2a1.8,1.8,0,0,0,1.7-1.8V25.8a1.7,1.7,0,0,0-1.7-1.7H68.4A7.5,7.5,0,0,0,70,20.6h31.1a6.8,6.8,0,0,1,6.8,6.9m-24,61.8A10.4,10.4,0,0,1,73.6,79V75.5a10.3,10.3,0,0,1,20.6,0V79A10.4,10.4,0,0,1,83.9,89.3M70.2,75.5H66.8V53.2h34.3V75.5H97.6a13.6,13.6,0,0,0-6.8-11.8v-.2a6.8,6.8,0,0,0-6.9-6.8,6.7,6.7,0,0,0-6.8,6.8v.2a13.5,13.5,0,0,0-6.9,11.8m-6.9,0H22.2v-48H63.3Zm37.8-25.7H95.8a10.5,10.5,0,0,0-6.4-7.9,6.8,6.8,0,0,0,1.4-4.1,6.9,6.9,0,0,0-6.9-6.9,6.9,6.9,0,0,0-5.4,11,10.3,10.3,0,0,0-6.4,7.9H66.8V27.5h34.3ZM83.9,41.2a3.4,3.4,0,0,1,0-6.8,3.4,3.4,0,1,1,0,6.8m-1.7,3.5h3.4a6.9,6.9,0,0,1,6.7,5.1H75.6a6.8,6.8,0,0,1,6.6-5.1m4.9,17.5a13.4,13.4,0,0,0-6.3,0,3.3,3.3,0,0,1,4.5-1.8,3.5,3.5,0,0,1,1.8,1.8M61.6,13.8a5.2,5.2,0,1,1-5.1,5.1,5.1,5.1,0,0,1,5.1-5.1M15.3,27.5a6.9,6.9,0,0,1,6.9-6.9h31a8.6,8.6,0,0,0,1.6,3.5H20.5a1.7,1.7,0,0,0-1.8,1.7V77.2A1.8,1.8,0,0,0,20.5,79H70.2a13.3,13.3,0,0,0,.5,3.4H15.3ZM17,96.1A5.1,5.1,0,0,1,11.9,91V85.8H72.1A12.8,12.8,0,0,0,75,89.4a15.5,15.5,0,0,0-10.8,6.7Zm85.8,17.2H97.6v-6.9H94.2v6.9H73.6v-6.9H70.2v6.9H65.1v-8.6a12,12,0,0,1,12-12H90.8a12,12,0,0,1,12,12ZM111.4,91a5.1,5.1,0,0,1-5.2,5.1h-2.6a15.5,15.5,0,0,0-10.8-6.7,13.1,13.1,0,0,0,3-3.6h15.6Z" transform="translate(-8.5 -10.3)"/><rect class="cls-1" x="51.5" y="6.9" width="3.4" height="3.43"/><path class="cls-1" d="M27.3,72.1H58.2a1.8,1.8,0,0,0,1.7-1.7V63.5a12.2,12.2,0,0,0-9.7-11.8,10.3,10.3,0,0,0,2.9-7V41.2a10.3,10.3,0,0,0-20.6,0v3.5a10.2,10.2,0,0,0,2.8,7,12.2,12.2,0,0,0-9.7,11.8v6.9a1.8,1.8,0,0,0,1.7,1.7M46.2,54.9a3.5,3.5,0,0,1-3.4,3.5,3.5,3.5,0,0,1-3.5-3.5ZM35.9,41.2a6.8,6.8,0,0,1,6.9-6.8,6.7,6.7,0,0,1,6.8,6.8v3.5a6.8,6.8,0,0,1-6.8,6.8,6.9,6.9,0,0,1-6.9-6.8ZM29,63.5a8.6,8.6,0,0,1,6.9-8.4,6.9,6.9,0,0,0,13.7,0,8.6,8.6,0,0,1,6.9,8.4v5.2H53.1V61.8H49.6v6.9H35.9V61.8H32.5v6.9H29Z" transform="translate(-8.5 -10.3)"/></svg>