<svg id="Capa_1" data-name="Capa 1" xmlns="http://www.w3.org/2000/svg" viewBox="0 0 99.3 99.3"><defs><style>.cls-1{fill:#312c83;}.cls-2{fill:#fff;}</style></defs><path class="cls-1" d="M111.7,70.4A49.7,49.7,0,1,1,62,20.8a49.8,49.8,0,0,1,49.7,49.6" transform="translate(-12.4 -20.8)"/><path class="cls-2" d="M75.4,67.6H54.1V62.8c0-6.3,3.5-11.2,7.9-11.5,6.2-.4,8.6,4.9,8.6,11.2h5.3V56.7c0-6.2-6.2-11.2-13.9-11.2s-13.9,5-13.9,11.2V67.6h-.6a3.8,3.8,0,0,0-3.9,3.8V96a3.7,3.7,0,0,0,3.9,3.7H75.4A3.8,3.8,0,0,0,79.3,96V71.4a3.9,3.9,0,0,0-3.9-3.8" transform="translate(-12.4 -20.8)"/></svg>