<svg id="Capa_1" data-name="Capa 1" xmlns="http://www.w3.org/2000/svg" viewBox="0 0 95.2 95.2"><defs><style>.cls-1{fill:#50b5cf;}</style></defs><path class="cls-1" d="M91.6,45.4a25.9,25.9,0,0,0,.4-4.8,27.2,27.2,0,0,0-52.8-9.3,13.8,13.8,0,0,0-17.7,7.6,13.3,13.3,0,0,0-.5,1.9,20.4,20.4,0,0,0,3,40.6H41a3.4,3.4,0,0,0,0-6.8H24a13.6,13.6,0,0,1,0-27.2A3.4,3.4,0,0,0,27.4,44a6.7,6.7,0,0,1,6.8-6.8A7.1,7.1,0,0,1,39,39.1a3.4,3.4,0,0,0,4.8,0,3.4,3.4,0,0,0,.9-1.9,20.4,20.4,0,0,1,40.2,6.7,11.8,11.8,0,0,1-.4,2,3.4,3.4,0,0,0,1.4,3.7,13.6,13.6,0,0,1-7.5,25H68.2a3.4,3.4,0,1,0,0,6.8H78.4a20.4,20.4,0,0,0,13.2-36" transform="translate(-3.6 -13.4)"/><path class="cls-1" d="M74,62,57,45l-1.1-.8a3.9,3.9,0,0,0-2.6,0l-1.1.8-17,17A3.4,3.4,0,0,0,40,66.8L51.2,55.6v49.6a3.4,3.4,0,1,0,6.8,0V55.6L69.2,66.8A3.4,3.4,0,0,0,74,62" transform="translate(-3.6 -13.4)"/></svg>